<svg height="512" viewBox="0 0 512 512" width="512" xmlns="http://www.w3.org/2000/svg"><g><path d="m476 48h-12v24h-32v-24h-64v24h-32v-24h-64v24h-32v-24h-64v24h-32v-24h-64v24h-32v-24h-12a19.994 19.994 0 0 0 -20 20v28h480v-28a19.994 19.994 0 0 0 -20-20z" fill="#57a4ff"/><path d="m416 328a160 160 0 1 0 -160 160 159.994 159.994 0 0 0 160-160zm-247.68 29.77 22.63-22.63 28.28 28.29 101.82-101.83 22.63 22.63-124.45 124.45z" fill="#57a4ff"/><g fill="#004fac"><path d="m476 40h-4v-16a8 8 0 0 0 -8-8h-32a8 8 0 0 0 -8 8v16h-48v-16a8 8 0 0 0 -8-8h-32a8 8 0 0 0 -8 8v16h-48v-16a8 8 0 0 0 -8-8h-32a8 8 0 0 0 -8 8v16h-48v-16a8 8 0 0 0 -8-8h-32a8 8 0 0 0 -8 8v16h-48v-16a8 8 0 0 0 -8-8h-32a8 8 0 0 0 -8 8v16h-4a28.031 28.031 0 0 0 -28 28v352a28.031 28.031 0 0 0 28 28h102.55a167.693 167.693 0 0 0 234.9 0h102.55a28.031 28.031 0 0 0 28-28v-352a28.031 28.031 0 0 0 -28-28zm-36-8h16v32h-16zm-96 0h16v32h-16zm-96 0h16v32h-16zm-96 0h16v32h-16zm-96 0h16v32h-16zm200 448c-83.81 0-152-68.19-152-152s68.19-152 152-152 152 68.19 152 152-68.19 152-152 152zm232-60a12.01 12.01 0 0 1 -12 12h-88.15a167.227 167.227 0 0 0 36.15-104c0-92.64-75.36-168-168-168s-168 75.36-168 168a167.227 167.227 0 0 0 36.15 104h-88.15a12.01 12.01 0 0 1 -12-12v-316h464zm0-332h-464v-20a12.01 12.01 0 0 1 12-12h4v16a8 8 0 0 0 8 8h32a8 8 0 0 0 8-8v-16h48v16a8 8 0 0 0 8 8h32a8 8 0 0 0 8-8v-16h48v16a8 8 0 0 0 8 8h32a8 8 0 0 0 8-8v-16h48v16a8 8 0 0 0 8 8h32a8 8 0 0 0 8-8v-16h48v16a8 8 0 0 0 8 8h32a8 8 0 0 0 8-8v-16h4a12.01 12.01 0 0 1 12 12z"/><path d="m256 208a8 8 0 0 0 0-16c-74.991 0-136 61.009-136 136a8 8 0 0 0 16 0 120.136 120.136 0 0 1 120-120z"/><path d="m326.71 255.946a8 8 0 0 0 -11.313 0l-96.167 96.167-22.63-22.628a8 8 0 0 0 -11.313 0l-22.628 22.628a8 8 0 0 0 0 11.313l50.912 50.912a8 8 0 0 0 11.313 0l124.454-124.451a8 8 0 0 0 0-11.313zm-107.48 141.422-39.6-39.6 11.314-11.314 22.628 22.627a8 8 0 0 0 11.313 0l96.167-96.166 11.314 11.313z"/></g></g></svg>