<svg id="Capa_1" enable-background="new 0 0 512.007 512.007" height="70" viewBox="0 0 512.007 512.007" width="70" xmlns="http://www.w3.org/2000/svg"><g><g><g clip-rule="evenodd" fill-rule="evenodd"><path d="m128.554 468.465 127.446-127.446 127.446 127.446 85.019-85.02-127.446-127.445 127.446-127.446-85.02-85.02-127.445 127.446-127.446-127.446-85.019 85.02 127.445 127.446-127.445 127.446z" fill="#DB4437"/><path d="m43.535 383.446 127.445-127.446-127.445-127.446 85.019-85.019 127.446 127.445 127.445-127.446 85.02 85.019-127.446 127.447 127.446 127.446-85.019 85.02-127.446-127.447-127.446 127.446zm74.14 116.566c5.984 5.984 15.775 5.984 21.758 0l116.567-116.567 116.567 116.566c5.984 5.984 15.775 5.984 21.759 0l105.687-105.687c5.984-5.984 5.984-15.775 0-21.759l-116.568-116.565 116.566-116.567c5.984-5.984 5.984-15.775 0-21.758l-105.686-105.687c-5.984-5.984-15.775-5.984-21.759 0l-116.566 116.566-116.567-116.566c-5.984-5.984-15.775-5.984-21.758 0l-105.687 105.687c-5.984 5.984-5.984 15.775 0 21.758l116.566 116.567-116.566 116.566c-5.984 5.984-5.984 15.775 0 21.759z" fill="#f2f2f4"/><path d="m128.554 468.465 11.25-11.25-73.77-73.769 127.446-127.446-127.446-127.446 73.77-73.77-11.25-11.25-85.019 85.02 127.445 127.446-127.445 127.446z" fill="#db1b09"/><path d="m117.675 500.012c6.301 6.301 15.935 5.819 22.129-.37l-127.816-127.076c-5.984 5.984-5.984 15.775 0 21.759zm-105.317-382.708c-6.191 6.191-6.669 15.83-.37 22.129l121.869 121.87 11.25-11.25z" fill="#bbbbbe"/></g><g><path d="m362.016 117.996-10.605-10.606 10.607-10.607 10.605 10.606zm21.215-21.214-10.606-10.606 10.605-10.606 10.606 10.606z" fill="#fff"/></g></g><g><path d="m439.668 439.668h15v15h-15z" transform="matrix(.707 -.707 .707 .707 -185.223 447.197)"/><path d="m394.052 256 111.264-111.264c8.922-8.923 8.922-23.441-.001-32.365l-105.687-105.686c-4.31-4.311-10.057-6.685-16.182-6.685s-11.872 2.374-16.183 6.685l-111.263 111.262-111.264-111.262c-4.31-4.311-10.057-6.685-16.182-6.685s-11.873 2.374-16.183 6.685l-105.686 105.686c-4.311 4.311-6.685 10.058-6.685 16.183s2.374 11.872 6.685 16.183l111.263 111.263-111.263 111.263c-4.311 4.31-6.685 10.057-6.685 16.182s2.374 11.872 6.685 16.183l105.687 105.687c4.461 4.461 10.322 6.692 16.183 6.692 5.86 0 11.721-2.231 16.182-6.692l111.263-111.263 111.264 111.264c8.924 8.922 23.441 8.922 32.365 0l36.933-36.934-10.606-10.606-36.933 36.934c-3.076 3.074-8.078 3.074-11.152 0l-121.871-121.871-121.87 121.87c-3.074 3.075-8.078 3.074-11.152 0l-105.687-105.688c-1.478-1.478-2.292-3.458-2.292-5.576s.814-4.099 2.292-5.576l121.87-121.869-121.87-121.87c-1.478-1.478-2.292-3.458-2.292-5.576s.814-4.099 2.292-5.576l105.688-105.687c1.477-1.478 3.457-2.292 5.576-2.292 2.118 0 4.098.814 5.576 2.292l121.869 121.869 121.869-121.868c1.479-1.478 3.459-2.292 5.577-2.292s4.099.814 5.576 2.292l105.687 105.686c3.075 3.075 3.075 8.078 0 11.153l-121.87 121.869 121.869 121.87c3.075 3.075 3.075 8.078 0 11.152l-36.933 36.934 10.606 10.606 36.934-36.934c8.922-8.923 8.922-23.442-.001-32.365z"/><path d="m78.544 78.544h15v15h-15z" transform="matrix(.707 -.707 .707 .707 -35.641 86.047)"/><path d="m64.831 96.651-31.903 31.903 127.446 127.446-127.446 127.445 95.626 95.626 127.446-127.446 127.446 127.446 95.626-95.626-127.446-127.445 127.446-127.446-95.626-95.626-127.446 127.446-127.446-127.446-31.903 31.903 10.606 10.607 21.297-21.297 127.446 127.445 127.446-127.445 74.413 74.413-127.446 127.446 127.446 127.445-74.413 74.413-127.446-127.445-127.446 127.445-74.413-74.413 127.446-127.445-127.446-127.446 21.297-21.297z"/></g></g></svg>